# xmcd
#
# Track frame offsets: 
#        150
#        11628
#        28776
#        40685
#        47735
#        69748
#        81364
#        88582
#        103902
#        117859
#        138173
#        145983
#        162199
#        169217
#        181374
#        193789
#        212464
#        222099
#
# Disc length: 3177 seconds
#
# Revision: 0
# Processed by: cddbd v1.5.2PL0 Copyright (c) Steve Scherf et al.
# Submitted via: ExactAudioCopyFreeDBPlugin 1.0
#
DISCID=000c6712
DTITLE=VBWcd2012 - Steengoed, Keigaaf
DYEAR=2012
DGENRE=Gospel
TTITLE0=Herman Boon - God is goed
TTITLE1=Verhaal: 12 stenen
TTITLE2=Ben Ketting - Jo, Jo, Jozua
TTITLE3=Timo van den Heuvel - Steengoed,keigaaf
TTITLE4=Verhaal: David en Goliath
TTITLE5=Elly Zuiderveld-Nieman - Dapper als David
TTITLE6=Lee Ann Vermeulen - Goliath
TTITLE7=Verhaal: 2 stenen platen
TTITLE8=Ben Ketting - Heb de Here lief
TTITLE9=Pieter van Maastricht - U bent de Here die ik dien
TTITLE10=Pieter van Maastricht - Genoeg te doen
TTITLE11=Verhaal: Huis op een steen
TTITLE12=Pieter van Maastricht - De dwaze man
TTITLE13=Lee Ann Vermeulen - Een wijze man
TTITLE14=Pieter van Maastricht - Kies voor het leven
TTITLE15=Verhaal: De steen op het graf
TTITLE16=Rikkert Zuiderveld - De steen is weg
TTITLE17=Ellen en Joost Lanninga - Samen met U
EXTD=
EXTT0=
EXTT1=
EXTT2=
EXTT3=
EXTT4=
EXTT5=
EXTT6=
EXTT7=
EXTT8=
EXTT9=
EXTT10=
EXTT11=
EXTT12=
EXTT13=
EXTT14=
EXTT15=
EXTT16=
EXTT17=
PLAYORDER=
